<svg width="19" height="24" viewBox="0 0 19 24" fill="none" xmlns="http://www.w3.org/2000/svg">
<path d="M15.7973 12.5796C15.8081 11.745 16.0298 10.9266 16.4418 10.2006C16.8538 9.47468 17.4428 8.86474 18.1539 8.42757C17.7021 7.78241 17.1062 7.25146 16.4134 6.87691C15.7205 6.50236 14.9499 6.29452 14.1627 6.26989C12.4835 6.09363 10.8555 7.27472 9.99981 7.27472C9.12754 7.27472 7.81004 6.28739 6.39131 6.31658C5.47364 6.34622 4.57929 6.61308 3.79541 7.09114C3.01154 7.5692 2.36486 8.24215 1.91839 9.04445C-0.0156074 12.3929 1.42698 17.3139 3.27959 20.0205C4.20649 21.3459 5.28977 22.8263 6.70722 22.7738C8.09428 22.7163 8.61232 21.8893 10.2866 21.8893C11.9454 21.8893 12.4314 22.7738 13.8776 22.7404C15.366 22.7163 16.3038 21.4092 17.1981 20.0713C17.8641 19.1269 18.3766 18.0832 18.7166 16.9788C17.8518 16.6131 17.1139 16.0009 16.5948 15.2186C16.0757 14.4363 15.7983 13.5185 15.7973 12.5796Z" fill="white"/>
<path d="M13.0656 4.49062C13.8772 3.51641 14.277 2.26423 14.1802 1C12.9403 1.13022 11.7951 1.72278 10.9726 2.65961C10.5704 3.11728 10.2624 3.64971 10.0662 4.22648C9.86996 4.80325 9.78931 5.41304 9.82888 6.021C10.449 6.02739 11.0625 5.89297 11.6232 5.62788C12.1838 5.3628 12.6771 4.97395 13.0656 4.49062Z" fill="white"/>
</svg>
