<svg width="24" height="26" viewBox="0 0 24 26" fill="none" xmlns="http://www.w3.org/2000/svg">
<path d="M10.75 12.2795L0.0999756 23.5795C0.429976 24.8095 1.54998 25.7095 2.87998 25.7095C3.40998 25.7095 3.90998 25.5695 4.33998 25.3095L4.36998 25.2895L16.35 18.3795L10.74 12.2695L10.75 12.2795Z" fill="#EA4335"/>
<path d="M21.52 10.3596H21.51L16.34 7.34961L10.51 12.5396L16.36 18.3896L21.51 15.4196C22.41 14.9296 23.02 13.9796 23.02 12.8896C23.02 11.7996 22.42 10.8496 21.52 10.3696V10.3596Z" fill="#FBBC04"/>
<path d="M0.0999994 2.14062C0.0399994 2.38062 0 2.62063 0 2.88063V22.8506C0 23.1106 0.0299994 23.3506 0.0999994 23.5906L11.11 12.5806L0.0999994 2.14062Z" fill="#4285F4"/>
<path d="M10.83 12.86L16.34 7.35L4.36998 0.41C3.93998 0.15 3.42998 0 2.87998 0C1.54998 0 0.429976 0.910001 0.0999756 2.13L10.83 12.85V12.86Z" fill="#34A853"/>
</svg>
