<svg width="87" height="18" viewBox="0 0 87 18" fill="none" xmlns="http://www.w3.org/2000/svg">
<g id="Frame 896">
<path id="Vector" d="M28.09 4.71C25.74 4.71 23.82 6.5 23.82 8.96C23.82 11.42 25.74 13.21 28.09 13.21C30.44 13.21 32.36 11.41 32.36 8.96C32.36 6.51 30.44 4.71 28.09 4.71ZM28.09 11.54C26.8 11.54 25.69 10.48 25.69 8.96C25.69 7.44 26.8 6.38 28.09 6.38C29.38 6.38 30.49 7.43 30.49 8.96C30.49 10.49 29.38 11.54 28.09 11.54ZM18.78 4.71C16.43 4.71 14.51 6.5 14.51 8.96C14.51 11.42 16.43 13.21 18.78 13.21C21.13 13.21 23.05 11.41 23.05 8.96C23.05 6.51 21.13 4.71 18.78 4.71ZM18.78 11.54C17.49 11.54 16.38 10.48 16.38 8.96C16.38 7.44 17.49 6.38 18.78 6.38C20.07 6.38 21.18 7.43 21.18 8.96C21.18 10.49 20.07 11.54 18.78 11.54ZM7.7 6.01V7.81H12.02C11.89 8.82 11.55 9.57 11.04 10.08C10.41 10.71 9.43 11.4 7.71 11.4C5.05 11.4 2.97 9.26 2.97 6.6C2.97 3.94 5.05 1.8 7.71 1.8C9.14 1.8 10.19 2.36 10.96 3.09L12.23 1.82C11.15 0.79 9.72 0 7.7 0C4.06 0 1 2.96 1 6.61C1 10.26 4.06 13.22 7.7 13.22C9.67 13.22 11.15 12.58 12.31 11.37C13.5 10.18 13.87 8.5 13.87 7.15C13.87 6.73 13.84 6.34 13.77 6.02H7.7V6.01ZM53.01 7.41C52.66 6.46 51.58 4.7 49.37 4.7C47.16 4.7 45.36 6.42 45.36 8.95C45.36 11.33 47.16 13.2 49.58 13.2C51.53 13.2 52.66 12.01 53.12 11.32L51.67 10.35C51.19 11.06 50.53 11.53 49.58 11.53C48.63 11.53 47.95 11.1 47.52 10.24L53.21 7.89L53.02 7.41H53.01ZM47.21 8.83C47.16 7.19 48.48 6.35 49.43 6.35C50.17 6.35 50.8 6.72 51.01 7.25L47.21 8.83ZM42.59 12.95H44.46V0.449999H42.59V12.95ZM39.53 5.65H39.47C39.05 5.15 38.25 4.7 37.23 4.7C35.1 4.7 33.15 6.57 33.15 8.97C33.15 11.37 35.1 13.21 37.23 13.21C38.24 13.21 39.05 12.76 39.47 12.24H39.53V12.85C39.53 14.48 38.66 15.35 37.26 15.35C36.12 15.35 35.41 14.53 35.12 13.84L33.49 14.52C33.96 15.65 35.2 17.03 37.26 17.03C39.45 17.03 41.3 15.74 41.3 12.6V4.96H39.53V5.65ZM37.39 11.53C36.1 11.53 35.02 10.45 35.02 8.97C35.02 7.49 36.1 6.38 37.39 6.38C38.68 6.38 39.66 7.48 39.66 8.97C39.66 10.46 38.66 11.53 37.39 11.53ZM61.77 0.449999H57.3V12.95H59.17V8.21H61.78C63.85 8.21 65.88 6.71 65.88 4.33C65.88 1.95 63.85 0.449999 61.78 0.449999H61.77ZM61.82 6.48H59.17V2.19H61.82C63.22 2.19 64.01 3.35 64.01 4.33C64.01 5.31 63.22 6.47 61.82 6.47V6.48ZM73.35 4.68C72 4.68 70.6 5.28 70.02 6.59L71.68 7.28C72.03 6.59 72.69 6.36 73.38 6.36C74.34 6.36 75.33 6.94 75.34 7.97V8.1C75 7.91 74.28 7.62 73.39 7.62C71.6 7.62 69.79 8.6 69.79 10.43C69.79 12.1 71.25 13.18 72.89 13.18C74.14 13.18 74.84 12.62 75.27 11.96H75.33V12.92H77.13V8.13C77.13 5.91 75.47 4.67 73.33 4.67L73.35 4.68ZM73.12 11.53C72.51 11.53 71.66 11.22 71.66 10.47C71.66 9.51 72.72 9.14 73.64 9.14C74.46 9.14 74.85 9.32 75.34 9.56C75.2 10.72 74.2 11.54 73.12 11.54V11.53ZM83.7 4.95L81.56 10.37H81.5L79.28 4.95H77.27L80.6 12.53L78.7 16.74H80.65L85.78 4.95H83.71H83.7ZM66.89 12.95H68.76V0.449999H66.89V12.95Z" fill="white"/>
</g>
</svg>
