<svg width="76" height="20" viewBox="0 0 76 20" fill="none" xmlns="http://www.w3.org/2000/svg">
<path d="M7.875 13.2686H3.1416L2.00488 16.625H0L4.4834 4.20703H6.5664L11.0498 16.625H9.01073L7.875 13.2686ZM3.63183 11.7198H7.38383L5.53422 6.27248H5.48246L3.63183 11.7198Z" fill="white"/>
<path d="M20.7325 12.0984C20.7325 14.9118 19.2266 16.7194 16.9541 16.7194C16.3785 16.7496 15.806 16.617 15.3022 16.3368C14.7984 16.0567 14.3837 15.6403 14.1055 15.1354H14.0625V19.6198H12.2041V7.57101H14.003V9.07687H14.0371C14.3281 8.5744 14.7498 8.16021 15.2575 7.87837C15.7651 7.59652 16.3396 7.45756 16.92 7.47628C19.2178 7.47629 20.7325 9.29269 20.7325 12.0984ZM18.8223 12.0984C18.8223 10.2654 17.875 9.06027 16.4297 9.06027C15.0098 9.06027 14.0547 10.2907 14.0547 12.0984C14.0547 13.9226 15.0098 15.1443 16.4297 15.1443C17.875 15.1443 18.8223 13.948 18.8223 12.0984Z" fill="white"/>
<path d="M30.6973 12.0983C30.6973 14.9118 29.1914 16.7194 26.919 16.7194C26.3433 16.7496 25.7708 16.6169 25.267 16.3368C24.7632 16.0567 24.3485 15.6403 24.0703 15.1354H24.0273V19.6198H22.1689V7.571H23.9678V9.07686H24.0019C24.2929 8.57439 24.7146 8.16021 25.2223 7.87836C25.7299 7.59652 26.3044 7.45756 26.8848 7.47628C29.1826 7.47628 30.6973 9.29268 30.6973 12.0983ZM28.7871 12.0983C28.7871 10.2653 27.8399 9.06026 26.3946 9.06026C24.9746 9.06026 24.0196 10.2907 24.0196 12.0983C24.0196 13.9226 24.9746 15.1442 26.3946 15.1442C27.8399 15.1442 28.7871 13.948 28.7871 12.0983Z" fill="white"/>
<path d="M37.2832 13.1651C37.4209 14.3965 38.6172 15.2051 40.252 15.2051C41.8184 15.2051 42.9453 14.3965 42.9453 13.2861C42.9453 12.3223 42.2657 11.7451 40.6563 11.3496L39.0469 10.9619C36.7666 10.4111 35.708 9.34473 35.708 7.61426C35.708 5.47168 37.5752 4 40.2266 4C42.8506 4 44.6494 5.47168 44.71 7.61426H42.834C42.7217 6.375 41.6973 5.62696 40.2002 5.62696C38.7031 5.62696 37.6787 6.3838 37.6787 7.48536C37.6787 8.36329 38.333 8.87989 39.9336 9.27536L41.3018 9.6113C43.8496 10.2138 44.9082 11.2373 44.9082 13.0537C44.9082 15.3769 43.0576 16.832 40.1143 16.832C37.3603 16.832 35.501 15.4111 35.3809 13.165L37.2832 13.1651Z" fill="white"/>
<path d="M48.9189 5.42969V7.57227H50.6406V9.04395H48.9189V14.0352C48.9189 14.8105 49.2637 15.1719 50.0205 15.1719C50.2249 15.1683 50.429 15.154 50.6318 15.1289V16.5918C50.2916 16.6553 49.9457 16.6841 49.5996 16.6777C47.7666 16.6777 47.0518 15.9892 47.0518 14.2334V9.04395H45.7354V7.57227H47.0517V5.42969H48.9189Z" fill="white"/>
<path d="M51.6377 12.0996C51.6377 9.25098 53.3154 7.46094 55.9316 7.46094C58.5566 7.46094 60.2266 9.25094 60.2266 12.0996C60.2266 14.9561 58.5654 16.7383 55.9316 16.7383C53.2988 16.7383 51.6377 14.956 51.6377 12.0996ZM58.333 12.0996C58.333 10.1455 57.4375 8.99219 55.9316 8.99219C54.4258 8.99219 53.5312 10.1543 53.5312 12.0996C53.5312 14.0615 54.4258 15.2061 55.9316 15.2061C57.4375 15.2061 58.333 14.0615 58.333 12.0996Z" fill="white"/>
<path d="M61.7588 7.57092H63.5313V9.11192H63.5743C63.6942 8.63064 63.9761 8.20531 64.3727 7.90742C64.7693 7.60954 65.2564 7.45726 65.752 7.47618C65.9662 7.47544 66.1797 7.4987 66.3887 7.54552V9.2838C66.1183 9.20119 65.8363 9.16325 65.5537 9.1715C65.2837 9.16055 65.0146 9.20815 64.7647 9.31104C64.5149 9.41393 64.2903 9.56966 64.1063 9.76755C63.9223 9.96544 63.7834 10.2008 63.6989 10.4575C63.6145 10.7141 63.5866 10.986 63.6172 11.2545V16.6246H61.7588L61.7588 7.57092Z" fill="white"/>
<path d="M74.957 13.9668C74.707 15.6103 73.1064 16.7383 71.0586 16.7383C68.4248 16.7383 66.79 14.9736 66.79 12.1426C66.79 9.30274 68.4336 7.46094 70.9805 7.46094C73.4853 7.46094 75.0606 9.18164 75.0606 11.9268V12.5635H68.666V12.6758C68.6365 13.009 68.6782 13.3446 68.7884 13.6605C68.8986 13.9763 69.0747 14.2651 69.3051 14.5077C69.5354 14.7502 69.8147 14.941 70.1245 15.0673C70.4342 15.1936 70.7673 15.2525 71.1016 15.2402C71.5407 15.2814 71.9814 15.1797 72.3582 14.9502C72.7349 14.7208 73.0274 14.3759 73.1924 13.9668L74.957 13.9668ZM68.6748 11.2646H73.2012C73.2179 10.9651 73.1724 10.6652 73.0678 10.384C72.9631 10.1028 72.8014 9.84628 72.5929 9.63052C72.3844 9.41475 72.1335 9.24442 71.856 9.1302C71.5785 9.01598 71.2805 8.96035 70.9805 8.9668C70.6778 8.96499 70.3778 9.02314 70.0978 9.13788C69.8178 9.25262 69.5632 9.42169 69.3489 9.63532C69.1345 9.84895 68.9646 10.1029 68.8489 10.3826C68.7332 10.6622 68.674 10.962 68.6748 11.2646Z" fill="white"/>
</svg>
