<?xml version="1.0" standalone="no"?>
<!DOCTYPE svg PUBLIC "-//W3C//DTD SVG 20010904//EN"
 "http://www.w3.org/TR/2001/REC-SVG-20010904/DTD/svg10.dtd">
<svg version="1.0" xmlns="http://www.w3.org/2000/svg"
 width="512.000000pt" height="512.000000pt" viewBox="0 0 512.000000 512.000000"
 preserveAspectRatio="xMidYMid meet">

<g transform="translate(0.000000,512.000000) scale(0.100000,-0.100000)"
fill="#000000" stroke="none">
<path d="M2425 5113 c-540 -64 -981 -365 -1218 -830 -65 -129 -100 -222 -135
-363 -24 -102 -25 -117 -29 -487 l-4 -383 -34 0 c-198 0 -373 -150 -405 -347
-13 -79 -13 -2279 0 -2358 26 -162 153 -298 312 -335 60 -13 3237 -13 3297 1
159 36 284 171 311 336 13 77 13 2279 0 2356 -28 176 -161 308 -338 339 l-72
12 0 311 c0 338 -11 460 -54 618 -147 536 -570 953 -1101 1087 -167 43 -388
60 -530 43z m361 -693 c306 -78 545 -320 626 -633 18 -73 21 -118 25 -409 l5
-328 -867 0 -866 0 4 348 c4 391 5 399 82 558 132 274 367 440 690 488 60 9
223 -4 301 -24z m-73 -2340 c76 -29 167 -113 204 -188 25 -51 28 -67 28 -162
0 -93 -3 -112 -27 -162 -17 -37 -51 -81 -92 -122 l-66 -64 0 -289 c0 -280 -1
-290 -22 -333 -57 -112 -208 -132 -299 -41 -20 20 -42 54 -48 76 -7 25 -11
145 -11 314 l0 274 -65 68 c-116 120 -150 244 -106 386 67 216 292 324 504
243z"/>
</g>
</svg>
