<?xml version="1.0" standalone="no"?>
<!DOCTYPE svg PUBLIC "-//W3C//DTD SVG 20010904//EN"
 "http://www.w3.org/TR/2001/REC-SVG-20010904/DTD/svg10.dtd">
<svg version="1.0" xmlns="http://www.w3.org/2000/svg"
 width="512.000000pt" height="512.000000pt" viewBox="0 0 512.000000 512.000000"
 preserveAspectRatio="xMidYMid meet">

<g transform="translate(0.000000,512.000000) scale(0.100000,-0.100000)"
fill="#000000" stroke="none">
<path d="M1390 4260 c-233 -29 -452 -159 -586 -347 -170 -237 -208 -541 -103
-813 81 -211 277 -404 492 -485 153 -57 351 -69 507 -29 154 39 313 135 422
254 354 388 276 1000 -164 1287 -165 108 -376 157 -568 133z"/>
<path d="M3310 4260 c-233 -29 -452 -159 -586 -347 -170 -237 -208 -541 -103
-813 81 -211 277 -404 492 -485 153 -57 351 -69 507 -29 154 39 313 135 422
254 354 388 276 1000 -164 1287 -165 108 -376 157 -568 133z"/>
<path d="M1268 2339 c-554 -64 -985 -500 -1047 -1062 -14 -125 -14 -207 1
-265 16 -64 86 -134 150 -150 33 -9 210 -12 603 -12 525 0 556 1 551 18 -33
113 -39 192 -26 334 35 392 194 754 449 1020 24 26 43 50 40 52 -12 13 -203
56 -284 66 -106 12 -328 11 -437 -1z"/>
<path d="M3095 2344 c-376 -40 -700 -221 -921 -514 -152 -201 -254 -498 -254
-741 0 -91 36 -161 105 -204 l48 -30 1316 -3 c1487 -3 1388 -8 1459 73 56 64
67 114 53 252 -25 248 -104 457 -245 648 -189 255 -456 427 -774 496 -86 19
-135 21 -422 24 -179 1 -343 1 -365 -1z"/>
</g>
</svg>
